<svg xmlns="http://www.w3.org/2000/svg" viewBox="0 0 24 24" role="img">
  <path fill="#34a853" d="M12 1.5a7.5 7.5 0 0 0-7.5 7.5c0 5.25 7.5 13.5 7.5 13.5s7.5-8.25 7.5-13.5A7.5 7.5 0 0 0 12 1.5Z"/>
  <path fill="#fbbc04" d="M4.7 7.3 9.9 12.5l-3 3C5.5 13.2 4.5 10.8 4.5 9c0-.6.1-1.2.2-1.7Z"/>
  <path fill="#ea4335" d="M12 1.5c2.1 0 4 .9 5.4 2.3l-5.1 5.1-4-4A7.4 7.4 0 0 1 12 1.5Z"/>
  <path fill="#4285f4" d="M17.4 3.8A7.5 7.5 0 0 1 19.5 9c0 2.2-1.3 5-2.9 7.5l-4.3-4.3 5.1-8.4Z"/>
  <circle cx="12" cy="9" r="2.7" fill="#fff"/>
</svg>
